<svg xmlns="http://www.w3.org/2000/svg" width="628" height="230" viewBox="0 0 628 230" version="1.1"><path d="M 0 115.002 L 0 230.003 314.250 229.752 L 628.500 229.500 628.754 114.750 L 629.008 0 314.504 0 L 0 0 0 115.002 M 0.483 115.500 C 0.483 178.750, 0.603 204.478, 0.750 172.673 C 0.896 140.868, 0.896 89.118, 0.750 57.673 C 0.603 26.228, 0.483 52.250, 0.483 115.500 M 39.072 3.810 C 28.131 9.349, 13.124 26.422, 6.973 40.327 C 3.984 47.086, 3.341 188.754, 6.257 198.178 C 9.691 209.274, 22.985 218.321, 43.506 223.527 L 53.256 226 318.190 226 L 583.124 226 588.812 223.340 C 595.754 220.094, 610.248 205.983, 617.862 195.060 L 623.047 187.619 622.774 110.060 L 622.500 32.500 619.820 26.782 C 616.258 19.182, 609.315 11.948, 600.370 6.517 L 593.049 2.073 588.674 8.286 C 586.268 11.704, 580.745 19.817, 576.400 26.315 L 568.500 38.130 560.073 20.565 C 551.269 2.214, 547.624 -1.692, 545.512 4.962 C 545.170 6.041, 541.518 13.955, 537.398 22.548 L 529.907 38.172 517.704 20.418 C 502.173 -2.177, 503.806 -1.930, 491.243 16.413 C 485.937 24.161, 480.392 32.179, 478.921 34.230 L 476.246 37.960 468.458 20.565 C 457.978 -2.843, 459.231 -2.820, 444.609 20.129 C 436.415 32.988, 432.960 37.637, 432.260 36.742 C 431.725 36.059, 426.945 28.026, 421.636 18.890 C 409.251 -2.424, 410.573 -2.488, 396.924 20.077 C 391.312 29.355, 386.432 36.767, 386.079 36.549 C 385.727 36.331, 382.339 28.731, 378.552 19.661 C 368.728 -3.868, 370.764 -4.554, 351.480 28.788 C 348.843 33.347, 346.419 37.236, 346.093 37.432 C 345.767 37.628, 340.450 29.796, 334.278 20.028 C 319.969 -2.619, 321.532 -2.623, 308.353 20.102 C 296.568 40.424, 299.146 40.482, 287.618 19.637 C 275.296 -2.643, 276.557 -2.667, 263.353 20.102 C 251.586 40.393, 254.135 40.406, 243.441 20 C 231.615 -2.567, 232.656 -2.564, 219.529 19.950 C 214.094 29.272, 209.352 36.718, 208.992 36.495 C 208.632 36.273, 204.819 28.685, 200.518 19.633 C 189.894 -2.728, 191.023 -2.754, 177.080 20.183 L 166.191 38.094 156.960 20.638 C 144.633 -2.671, 146.387 -2.636, 130.201 20.104 C 115.024 41.428, 118.503 41.412, 106.298 20.217 C 93.117 -2.674, 94.949 -2.605, 79.500 19.202 C 72.900 28.519, 67.008 36.556, 66.407 37.063 C 65.663 37.690, 61.948 32.480, 54.768 20.742 C 48.820 11.017, 44.656 3.228, 45.218 2.875 C 48.513 0.806, 43.497 1.570, 39.072 3.810" stroke="none" fill="#fffffe" fill-rule="evenodd"/><path d="M 242.705 72.265 C 241.492 73.511, 228.375 95.093, 213.555 120.225 C 184.244 169.930, 186.399 167.164, 175.280 169.359 C 160.247 172.327, 167.111 174.479, 192.313 174.700 L 215.126 174.899 214.813 172.746 C 214.555 170.975, 213.436 170.389, 208.500 169.441 C 196.736 167.181, 196.818 168.028, 206.688 150.586 L 214.377 137 239.126 137 L 263.875 137 271.059 150.108 C 281.005 168.254, 281.069 167.088, 270 169.417 C 265.604 170.342, 264.438 171.001, 264.191 172.703 L 263.883 174.833 291.946 174.814 C 307.381 174.803, 320.233 174.431, 320.508 173.987 C 321.756 171.967, 319.554 170.126, 315.169 169.523 C 303.970 167.983, 305.795 170.357, 275.942 118.524 C 245.599 65.841, 247.025 67.826, 242.705 72.265 M 384 70.955 C 291.393 80.618, 303.403 173.790, 397.500 175.689 C 447.436 176.697, 450 175.687, 450 155 C 450 136.933, 449.808 137.359, 458.776 135.569 C 463.492 134.627, 464.556 134.036, 464.820 132.213 L 465.139 130 437.500 130 L 409.861 130 410.180 132.241 C 410.454 134.160, 411.466 134.656, 417.238 135.699 C 429.044 137.833, 429.298 138.289, 428.800 156.474 L 428.500 167.448 424 168.285 C 372.047 177.947, 329.660 139.314, 350.112 100.941 C 364.762 73.454, 426.328 67.577, 440.901 92.274 C 446.770 102.218, 452.813 101.899, 450.010 91.793 C 449.041 88.297, 447.930 83.128, 447.542 80.307 L 446.837 75.177 440.668 74.137 C 422.028 70.993, 397.065 69.592, 384 70.955 M 514 72.536 C 482.786 81.149, 478.452 109.089, 506.320 122.043 C 509.719 123.623, 519.700 126.988, 528.500 129.520 C 556.752 137.651, 565.394 145.340, 559.302 156.929 C 549.208 176.132, 509.775 172.563, 495.681 151.170 C 491.113 144.236, 488.148 142.239, 484.499 143.639 C 483.379 144.069, 483.028 144.963, 483.419 146.388 C 483.738 147.550, 484.732 152.325, 485.627 157 C 488.097 169.903, 487.759 169.449, 496.669 171.828 C 576.876 193.241, 618.980 137.811, 540.203 114.514 C 518.306 108.038, 508.052 102.898, 505.938 97.337 C 497.544 75.259, 545.851 70.040, 564.125 91.050 C 568.694 96.303, 569.732 97, 572.983 97 L 576.666 97 575.354 90.250 C 574.633 86.537, 573.799 81.872, 573.501 79.883 L 572.959 76.266 562.730 73.993 C 549.330 71.015, 522.427 70.211, 514 72.536 M 56.167 74.136 C 56.369 75.560, 57.284 76.602, 58.500 76.791 C 75.567 79.451, 74.003 74.749, 73.985 123.321 C 73.967 170.133, 74.677 166.772, 64.349 168.967 C 57.675 170.385, 56.452 170.962, 56.181 172.816 L 55.861 174.997 93.681 174.422 C 148.389 173.590, 161.898 170.022, 169.100 154.500 C 176.498 138.556, 165.771 126.236, 140.009 121.091 L 131.517 119.395 136.340 118.045 C 156.600 112.372, 164.286 93.833, 151.009 82.661 C 140.597 73.900, 134.601 72.851, 91.667 72.273 L 55.834 71.792 56.167 74.136 M 95 98.643 L 95 118.286 104.964 117.600 C 148.798 114.581, 145.839 79.057, 101.750 79.008 L 95 79 95 98.643 M 229.166 111.046 C 223.575 120.924, 219 129.454, 219 130.003 C 219 130.633, 226.537 131, 239.500 131 C 250.775 131, 260 130.730, 260 130.400 C 260 130.070, 256.908 124.108, 253.130 117.150 C 249.351 110.193, 245.027 102.134, 243.521 99.241 C 242.014 96.349, 240.455 93.781, 240.057 93.535 C 239.658 93.289, 234.757 101.169, 229.166 111.046 M 95 143.977 L 95 163.954 97.465 165.569 C 108.041 172.499, 140.692 166.050, 145.750 156.033 C 155.239 137.238, 137.121 124.051, 101.750 124.008 L 95 124 95 143.977" stroke="none" fill="#1e1d1c" fill-rule="evenodd"/><path d="M 39.072 3.810 C 28.131 9.349, 13.124 26.422, 6.973 40.327 C 3.984 47.086, 3.341 188.754, 6.257 198.178 C 9.691 209.274, 22.985 218.321, 43.506 223.527 L 53.256 226 318.190 226 L 583.124 226 588.812 223.340 C 595.754 220.094, 610.248 205.983, 617.862 195.060 L 623.047 187.619 622.774 110.060 L 622.500 32.500 619.820 26.782 C 616.258 19.182, 609.315 11.948, 600.370 6.517 L 593.049 2.073 588.674 8.286 C 586.268 11.704, 580.745 19.817, 576.400 26.315 L 568.500 38.130 560.073 20.565 C 551.269 2.214, 547.624 -1.692, 545.512 4.962 C 545.170 6.041, 541.518 13.955, 537.398 22.548 L 529.907 38.172 517.704 20.418 C 502.173 -2.177, 503.806 -1.930, 491.243 16.413 C 485.937 24.161, 480.392 32.179, 478.921 34.230 L 476.246 37.960 468.458 20.565 C 457.978 -2.843, 459.231 -2.820, 444.609 20.129 C 436.415 32.988, 432.960 37.637, 432.260 36.742 C 431.725 36.059, 426.945 28.026, 421.636 18.890 C 409.251 -2.424, 410.573 -2.488, 396.924 20.077 C 391.312 29.355, 386.432 36.767, 386.079 36.549 C 385.727 36.331, 382.339 28.731, 378.552 19.661 C 368.728 -3.868, 370.764 -4.554, 351.480 28.788 C 348.843 33.347, 346.419 37.236, 346.093 37.432 C 345.767 37.628, 340.450 29.796, 334.278 20.028 C 319.969 -2.619, 321.532 -2.623, 308.353 20.102 C 296.568 40.424, 299.146 40.482, 287.618 19.637 C 275.296 -2.643, 276.557 -2.667, 263.353 20.102 C 251.586 40.393, 254.135 40.406, 243.441 20 C 231.615 -2.567, 232.656 -2.564, 219.529 19.950 C 214.094 29.272, 209.352 36.718, 208.992 36.495 C 208.632 36.273, 204.819 28.685, 200.518 19.633 C 189.894 -2.728, 191.023 -2.754, 177.080 20.183 L 166.191 38.094 156.960 20.638 C 144.633 -2.671, 146.387 -2.636, 130.201 20.104 C 115.024 41.428, 118.503 41.412, 106.298 20.217 C 93.117 -2.674, 94.949 -2.605, 79.500 19.202 C 72.900 28.519, 67.008 36.556, 66.407 37.063 C 65.663 37.690, 61.948 32.480, 54.768 20.742 C 48.820 11.017, 44.656 3.228, 45.218 2.875 C 48.513 0.806, 43.497 1.570, 39.072 3.810 M 242.705 72.265 C 241.492 73.511, 228.375 95.093, 213.555 120.225 C 184.244 169.930, 186.399 167.164, 175.280 169.359 C 160.247 172.327, 167.111 174.479, 192.313 174.700 L 215.126 174.899 214.813 172.746 C 214.555 170.975, 213.436 170.389, 208.500 169.441 C 196.736 167.181, 196.818 168.028, 206.688 150.586 L 214.377 137 239.126 137 L 263.875 137 271.059 150.108 C 281.005 168.254, 281.069 167.088, 270 169.417 C 265.604 170.342, 264.438 171.001, 264.191 172.703 L 263.883 174.833 291.946 174.814 C 307.381 174.803, 320.233 174.431, 320.508 173.987 C 321.756 171.967, 319.554 170.126, 315.169 169.523 C 303.970 167.983, 305.795 170.357, 275.942 118.524 C 245.599 65.841, 247.025 67.826, 242.705 72.265 M 384 70.955 C 291.393 80.618, 303.403 173.790, 397.500 175.689 C 447.436 176.697, 450 175.687, 450 155 C 450 136.933, 449.808 137.359, 458.776 135.569 C 463.492 134.627, 464.556 134.036, 464.820 132.213 L 465.139 130 437.500 130 L 409.861 130 410.180 132.241 C 410.454 134.160, 411.466 134.656, 417.238 135.699 C 429.044 137.833, 429.298 138.289, 428.800 156.474 L 428.500 167.448 424 168.285 C 372.047 177.947, 329.660 139.314, 350.112 100.941 C 364.762 73.454, 426.328 67.577, 440.901 92.274 C 446.770 102.218, 452.813 101.899, 450.010 91.793 C 449.041 88.297, 447.930 83.128, 447.542 80.307 L 446.837 75.177 440.668 74.137 C 422.028 70.993, 397.065 69.592, 384 70.955 M 514 72.536 C 482.786 81.149, 478.452 109.089, 506.320 122.043 C 509.719 123.623, 519.700 126.988, 528.500 129.520 C 556.752 137.651, 565.394 145.340, 559.302 156.929 C 549.208 176.132, 509.775 172.563, 495.681 151.170 C 491.113 144.236, 488.148 142.239, 484.499 143.639 C 483.379 144.069, 483.028 144.963, 483.419 146.388 C 483.738 147.550, 484.732 152.325, 485.627 157 C 488.097 169.903, 487.759 169.449, 496.669 171.828 C 576.876 193.241, 618.980 137.811, 540.203 114.514 C 518.306 108.038, 508.052 102.898, 505.938 97.337 C 497.544 75.259, 545.851 70.040, 564.125 91.050 C 568.694 96.303, 569.732 97, 572.983 97 L 576.666 97 575.354 90.250 C 574.633 86.537, 573.799 81.872, 573.501 79.883 L 572.959 76.266 562.730 73.993 C 549.330 71.015, 522.427 70.211, 514 72.536 M 56.167 74.136 C 56.369 75.560, 57.284 76.602, 58.500 76.791 C 75.567 79.451, 74.003 74.749, 73.985 123.321 C 73.967 170.133, 74.677 166.772, 64.349 168.967 C 57.675 170.385, 56.452 170.962, 56.181 172.816 L 55.861 174.997 93.681 174.422 C 148.389 173.590, 161.898 170.022, 169.100 154.500 C 176.498 138.556, 165.771 126.236, 140.009 121.091 L 131.517 119.395 136.340 118.045 C 156.600 112.372, 164.286 93.833, 151.009 82.661 C 140.597 73.900, 134.601 72.851, 91.667 72.273 L 55.834 71.792 56.167 74.136 M 95 98.643 L 95 118.286 104.964 117.600 C 148.798 114.581, 145.839 79.057, 101.750 79.008 L 95 79 95 98.643 M 229.166 111.046 C 223.575 120.924, 219 129.454, 219 130.003 C 219 130.633, 226.537 131, 239.500 131 C 250.775 131, 260 130.730, 260 130.400 C 260 130.070, 256.908 124.108, 253.130 117.150 C 249.351 110.193, 245.027 102.134, 243.521 99.241 C 242.014 96.349, 240.455 93.781, 240.057 93.535 C 239.658 93.289, 234.757 101.169, 229.166 111.046 M 95 143.977 L 95 163.954 97.465 165.569 C 108.041 172.499, 140.692 166.050, 145.750 156.033 C 155.239 137.238, 137.121 124.051, 101.750 124.008 L 95 124 95 143.977" stroke="none" fill="#c4a178" fill-rule="evenodd"/></svg>