<svg xmlns="http://www.w3.org/2000/svg" width="72" height="110" viewBox="0 0 72 110" version="1.1"><path d="M 9.975 24.565 C -0.270 51.513, 38.412 72.734, 56.898 50.307 C 61.266 45.008, 65.345 32.512, 61.429 36.429 C 58.849 39.008, 55.874 38.296, 43.209 32.063 C 22.947 22.090, 11.867 19.591, 9.975 24.565" stroke="none" fill="#bbaf92" fill-rule="evenodd"/><path d="" stroke="none" fill="#7f7f7e" fill-rule="evenodd"/><path d="M 0 55.012 C 0 110.025, 0 110.025, 36.250 109.762 C 72.500 109.500, 72.500 109.500, 72.759 54.750 C 73.017 0, 73.017 0, 36.509 0 C 0 0, 0 0, 0 55.012 M 0.467 55.500 C 0.467 85.750, 0.594 98.269, 0.749 83.321 C 0.905 68.372, 0.905 43.622, 0.749 28.321 C 0.594 13.019, 0.467 25.250, 0.467 55.500 M 22.500 3.821 C -8.107 18.825, 0.752 62.493, 34.892 64.907 C 43.284 65.500, 43.284 65.500, 50.538 85.500 C 55.798 100.004, 58.268 105.596, 59.526 105.848 C 62.857 106.517, 62.804 103.697, 59.306 94.099 C 46.970 60.248, 47.616 63.415, 52.469 60.571 C 86.644 40.543, 58.049 -13.605, 22.500 3.821 M 30.184 6.047 C 16.190 8.871, 8.533 19.922, 19.009 22.175 C 24.279 23.309, 32.021 26.252, 40.993 30.532 C 58.708 38.982, 61.352 39.075, 61.802 31.261 C 62.700 15.682, 46.492 2.757, 30.184 6.047" stroke="none" fill="#fffffe" fill-rule="evenodd"/><path d="M 29 2.365 C -9.188 10.984, 1.250 70.494, 39.883 64.412 C 43.500 63.842, 43.500 63.842, 50.918 84.466 C 58.361 105.161, 59.314 107.086, 61.187 105.213 C 61.870 104.530, 59.774 97.505, 54.743 83.611 C 47.288 63.021, 47.288 63.021, 51.478 60.566 C 82.436 42.423, 63.922 -5.516, 29 2.365 M 25 7.075 C -1.539 19.055, 5.950 59.625, 34.823 60.288 C 54.128 60.732, 67.317 43.398, 62.125 24.404 C 57.989 9.271, 39.379 0.584, 25 7.075" stroke="none" fill="#2b2a29" fill-rule="evenodd"/><path d="" stroke="none" fill="#edeae5" fill-rule="evenodd"/></svg>