<svg xmlns="http://www.w3.org/2000/svg" width="179" height="249" viewBox="0 0 179 249" version="1.1"><path d="M -0 33.548 C -0 55.183, 0.353 67, 1 67 C 1.603 67, 2 62.833, 2 56.500 C 2 47.833, 2.262 46, 3.500 46 C 4.611 46, 5 44.833, 5 41.500 C 5 39.025, 5.450 37, 6 37 C 6.550 37, 7 35.200, 7 33 C 7 30.800, 7.450 29, 8 29 C 8.550 29, 9 28.100, 9 27 C 9 25.900, 9.450 25, 10 25 C 10.550 25, 11 23.875, 11 22.500 C 11 21.125, 11.450 20, 12 20 C 12.550 20, 13 19.313, 13 18.474 C 13 16.912, 21.298 8, 22.753 8 C 23.196 8, 24.207 7.100, 25 6 C 25.847 4.826, 27.589 4, 29.221 4 C 31.025 4, 32 3.474, 32 2.500 C 32 1.367, 33.222 1, 37 1 C 41.667 1, 42 1.167, 42 3.500 C 42 5.056, 42.567 6, 43.500 6 C 44.333 6, 45 6.889, 45 8 C 45 9.100, 45.450 10, 46 10 C 46.550 10, 47 11.350, 47 13 C 47 14.650, 47.450 16, 48 16 C 48.550 16, 49 17.350, 49 19 C 49 20.650, 49.450 22, 50 22 C 50.550 22, 51 23.575, 51 25.500 C 51 27.425, 51.245 29, 51.545 29 C 52.968 29, 57 23.859, 57 22.045 C 57 20.920, 57.450 20, 58 20 C 58.550 20, 59 19.293, 59 18.429 C 59 16.633, 61.335 14, 62.929 14 C 63.518 14, 64 13.100, 64 12 C 64 10.900, 64.450 10, 65 10 C 65.550 10, 66 9.199, 66 8.221 C 66 7.242, 66.900 5.793, 68 5 C 74.571 0.264, 72.485 -0.051, 35 0.026 C 0 0.097, -0 0.097, -0 33.548 M 76.750 0.662 C 77.438 0.940, 78 2.254, 78 3.583 C 78 4.912, 78.450 6, 79 6 C 79.550 6, 80 7.350, 80 9 C 80 10.650, 80.450 12, 81 12 C 81.550 12, 82 12.900, 82 14 C 82 15.111, 82.667 16, 83.500 16 C 84.333 16, 85 16.889, 85 18 C 85 19.100, 85.450 20, 86 20 C 86.550 20, 87 21.125, 87 22.500 C 87 23.875, 87.450 25, 88 25 C 88.550 25, 89 25.900, 89 27 C 89 28.100, 89.257 29, 89.571 29 C 90.903 29, 93 25.985, 93 24.071 C 93 22.932, 93.450 22, 94 22 C 94.550 22, 95 21.100, 95 20 C 95 18.900, 95.450 18, 96 18 C 96.550 18, 97 17.100, 97 16 C 97 14.900, 97.450 14, 98 14 C 98.550 14, 99 13.100, 99 12 C 99 10.900, 99.450 10, 100 10 C 100.550 10, 101 9.100, 101 8 C 101 6.889, 101.667 6, 102.500 6 C 103.500 6, 104 5, 104 3 C 104 0, 104 0, 89.750 0.079 C 81.912 0.122, 76.063 0.385, 76.750 0.662 M 110.750 0.662 C 111.438 0.940, 112 1.804, 112 2.583 C 112 3.362, 112.450 4, 113 4 C 113.550 4, 114 4.900, 114 6 C 114 7.100, 114.450 8, 115 8 C 115.550 8, 116 8.900, 116 10 C 116 11.100, 116.450 12, 117 12 C 117.550 12, 118 12.707, 118 13.571 C 118 15.367, 120.335 18, 121.929 18 C 122.518 18, 123 18.900, 123 20 C 123 21.100, 123.450 22, 124 22 C 124.550 22, 125 23.125, 125 24.500 C 125 26.106, 125.562 27, 126.571 27 C 128.777 27, 131 24.526, 131 22.071 C 131 20.932, 131.450 20, 132 20 C 132.550 20, 133 19.100, 133 18 C 133 16.900, 133.450 16, 134 16 C 134.550 16, 135 15.199, 135 14.221 C 135 13.242, 135.900 11.793, 137 11 C 138.100 10.207, 139 8.758, 139 7.779 C 139 6.801, 139.450 6, 140 6 C 140.550 6, 141 4.875, 141 3.500 C 141 1.090, 141.233 1, 147.500 1 C 152.611 1, 154 1.321, 154 2.500 C 154 3.325, 154.801 4, 155.779 4 C 156.758 4, 158.207 4.900, 159 6 C 159.793 7.100, 160.813 8, 161.266 8 C 162.699 8, 167 12.842, 167 14.455 C 167 15.305, 167.450 16, 168 16 C 168.550 16, 169 17.350, 169 19 C 169 20.650, 169.450 22, 170 22 C 170.550 22, 171 23.575, 171 25.500 C 171 27.425, 171.450 29, 172 29 C 172.550 29, 173 30.350, 173 32 C 173 33.650, 173.450 35, 174 35 C 174.564 35, 175 37.833, 175 41.500 C 175 45.167, 175.436 48, 176 48 C 176.658 48, 177 75, 177 127 C 177 179, 176.658 206, 176 206 C 175.444 206, 175 208.667, 175 212 C 175 215.333, 174.556 218, 174 218 C 173.450 218, 173 220.025, 173 222.500 C 173 224.975, 172.550 227, 172 227 C 171.450 227, 171 227.900, 171 229 C 171 230.100, 170.550 231, 170 231 C 169.450 231, 169 231.801, 169 232.779 C 169 233.758, 168.100 235.207, 167 236 C 165.900 236.793, 165 238.467, 165 239.721 C 165 241.369, 164.419 242, 162.901 242 C 161.747 242, 159.589 243.299, 158.105 244.887 C 156.622 246.475, 154.529 248.005, 153.454 248.287 C 152.379 248.568, 157.800 248.731, 165.500 248.649 C 181.465 248.479, 179.738 268.598, 179.243 88.500 C 179 0, 179 0, 144.250 0.079 C 125.137 0.122, 110.063 0.385, 110.750 0.662 M 1.225 213.250 C 1 249, 1 249, 15.750 248.864 C 23.863 248.789, 29.488 248.533, 28.250 248.294 C 27.013 248.056, 26 247.442, 26 246.930 C 26 246.419, 25.080 246, 23.955 246 C 21.960 246, 17 241.911, 17 240.266 C 17 239.813, 16.100 238.793, 15 238 C 13.900 237.207, 13 235.857, 13 235 C 13 234.143, 12.100 232.793, 11 232 C 9.826 231.153, 9 229.411, 9 227.779 C 9 226.251, 8.550 225, 8 225 C 7.450 225, 7 223.875, 7 222.500 C 7 221.125, 6.550 220, 6 220 C 5.450 220, 5 218.200, 5 216 C 5 213.140, 4.579 212, 3.524 212 C 2.290 212, 1.998 209.159, 1.748 194.750 C 1.584 185.262, 1.348 193.588, 1.225 213.250" stroke="none" fill="#fffffe" fill-rule="evenodd"/><path d="M 175 72 C 175 87.333, 175.361 96, 176 96 C 176.639 96, 177 87.333, 177 72 C 177 56.667, 176.639 48, 176 48 C 175.361 48, 175 56.667, 175 72 M 0 163.500 C 0 172.500, 0.379 178, 1 178 C 1.621 178, 2 172.500, 2 163.500 C 2 154.500, 1.621 149, 1 149 C 0.379 149, 0 154.500, 0 163.500 M 175 190 C 175 200, 175.375 206, 176 206 C 176.625 206, 177 200, 177 190 C 177 180, 176.625 174, 176 174 C 175.375 174, 175 180, 175 190" stroke="none" fill="#f9f7f4" fill-rule="evenodd"/><path d="M 71.250 0.662 C 70.563 0.940, 70 2.155, 70 3.363 C 70 4.570, 69.100 6.207, 68 7 C 66.900 7.793, 66 9.242, 66 10.221 C 66 11.199, 65.550 12, 65 12 C 64.450 12, 64 12.900, 64 14 C 64 15.111, 63.333 16, 62.500 16 C 61.675 16, 61 16.801, 61 17.779 C 61 18.758, 60.100 20.207, 59 21 C 57.900 21.793, 57 23.467, 57 24.721 C 57 25.974, 56.550 27, 56 27 C 55.450 27, 55 27.900, 55 29 C 55 30.333, 54.333 31, 53 31 C 51.667 31, 51 30.333, 51 29 C 51 27.900, 50.550 27, 50 27 C 49.450 27, 49 25.425, 49 23.500 C 49 21.575, 48.550 20, 48 20 C 47.450 20, 47 18.650, 47 17 C 47 15.350, 46.550 14, 46 14 C 45.450 14, 45 12.650, 45 11 C 45 9, 44.500 8, 43.500 8 C 42.667 8, 42 7.111, 42 6 C 42 4.900, 41.550 4, 41 4 C 40.450 4, 40 3.325, 40 2.500 C 40 1.667, 39.111 1, 38 1 C 36.889 1, 36 1.667, 36 2.500 C 36 3.500, 35 4, 33 4 C 31.350 4, 30 4.450, 30 5 C 30 5.550, 29.100 6, 28 6 C 26.900 6, 26 6.450, 26 7 C 26 7.550, 25.068 8, 23.929 8 C 21.663 8, 19 10.176, 19 12.027 C 19 12.671, 17.650 14.459, 16 16 C 14.350 17.541, 13 19.522, 13 20.401 C 13 21.281, 12.550 22, 12 22 C 11.450 22, 11 23.125, 11 24.500 C 11 25.875, 10.550 27, 10 27 C 9.450 27, 9 28.350, 9 30 C 9 31.650, 8.550 33, 8 33 C 7.450 33, 7 34.800, 7 37 C 7 39.200, 6.550 41, 6 41 C 5.436 41, 5 43.833, 5 47.500 C 5 52.611, 4.679 54, 3.500 54 C 2.229 54, 2 56.444, 2 70 C 2 80, 1.625 86, 1 86 C 0.354 86, 0 97.167, 0 117.500 C 0 137.833, 0.354 149, 1 149 C 1.642 149, 2 158.833, 2 176.500 C 2 200.278, 2.203 204, 3.500 204 C 4.667 204, 5 205.333, 5 210 C 5 213.333, 5.444 216, 6 216 C 6.550 216, 7 217.575, 7 219.500 C 7 221.425, 7.450 223, 8 223 C 8.550 223, 9 223.900, 9 225 C 9 226.100, 9.450 227, 10 227 C 10.550 227, 11 227.900, 11 229 C 11 230.100, 11.450 231, 12 231 C 12.550 231, 13 231.719, 13 232.599 C 13 233.478, 14.350 235.459, 16 237 C 17.650 238.541, 19 240.104, 19 240.473 C 19 241.533, 21.748 244, 22.929 244 C 23.518 244, 24 244.450, 24 245 C 24 245.550, 24.862 246, 25.917 246 C 26.971 246, 28.021 246.563, 28.250 247.250 C 29.142 249.929, 152.437 248.954, 154.783 246.250 C 155.856 245.013, 157.469 244, 158.367 244 C 159.265 244, 160 243.550, 160 243 C 160 242.450, 160.675 242, 161.500 242 C 162.325 242, 163 241.325, 163 240.500 C 163 239.675, 163.450 239, 164 239 C 164.550 239, 165 238.199, 165 237.221 C 165 236.242, 165.900 234.793, 167 234 C 168.100 233.207, 169 231.758, 169 230.779 C 169 229.801, 169.450 229, 170 229 C 170.550 229, 171 227.650, 171 226 C 171 224.350, 171.450 223, 172 223 C 172.550 223, 173 220.975, 173 218.500 C 173 216.025, 173.450 214, 174 214 C 174.633 214, 175 206.667, 175 194 C 175 181.333, 175.367 174, 176 174 C 176.650 174, 177 160.333, 177 135 C 177 109.667, 176.650 96, 176 96 C 175.358 96, 175 86.167, 175 68.500 C 175 50.833, 174.642 41, 174 41 C 173.450 41, 173 39.200, 173 37 C 173 34.800, 172.550 33, 172 33 C 171.450 33, 171 31.200, 171 29 C 171 26.800, 170.550 25, 170 25 C 169.450 25, 169 23.875, 169 22.500 C 169 21.125, 168.550 20, 168 20 C 167.450 20, 167 19.100, 167 18 C 167 16.900, 166.550 16, 166 16 C 165.450 16, 165 15.293, 165 14.429 C 165 12.852, 162.728 10, 161.473 10 C 161.104 10, 159.541 8.650, 158 7 C 156.277 5.155, 154.197 4, 152.599 4 C 150.955 4, 150 3.449, 150 2.500 C 150 1.500, 149 1, 147 1 C 145 1, 144 1.500, 144 2.500 C 144 3.325, 143.325 4, 142.500 4 C 141.667 4, 141 4.889, 141 6 C 141 7.100, 140.550 8, 140 8 C 139.450 8, 139 8.900, 139 10 C 139 11.100, 138.550 12, 138 12 C 137.450 12, 137 12.801, 137 13.779 C 137 14.758, 136.100 16.207, 135 17 C 133.900 17.793, 133 19.242, 133 20.221 C 133 21.199, 132.550 22, 132 22 C 131.450 22, 131 23.125, 131 24.500 C 131 25.875, 130.550 27, 130 27 C 129.450 27, 129 27.900, 129 29 C 129 30.100, 128.743 31, 128.429 31 C 127.255 31, 125 28.087, 125 26.571 C 125 25.707, 124.550 25, 124 25 C 123.450 25, 123 23.875, 123 22.500 C 123 21.125, 122.518 20, 121.929 20 C 120.335 20, 118 17.367, 118 15.571 C 118 14.707, 117.550 14, 117 14 C 116.450 14, 116 13.100, 116 12 C 116 10.900, 115.550 10, 115 10 C 114.450 10, 114 9.199, 114 8.221 C 114 7.242, 113.100 5.793, 112 5 C 110.900 4.207, 110 2.758, 110 1.779 C 110 0.667, 109.251 0, 108 0 C 106.667 0, 106 0.667, 106 2 C 106 3.100, 105.550 4, 105 4 C 104.450 4, 104 4.900, 104 6 C 104 7.111, 103.333 8, 102.500 8 C 101.667 8, 101 8.889, 101 10 C 101 11.100, 100.550 12, 100 12 C 99.450 12, 99 12.900, 99 14 C 99 15.100, 98.550 16, 98 16 C 97.450 16, 97 16.900, 97 18 C 97 19.100, 96.550 20, 96 20 C 95.450 20, 95 21.125, 95 22.500 C 95 23.875, 94.550 25, 94 25 C 93.450 25, 93 25.707, 93 26.571 C 93 28.087, 90.745 31, 89.571 31 C 89.257 31, 89 30.100, 89 29 C 89 27.900, 88.550 27, 88 27 C 87.450 27, 87 25.875, 87 24.500 C 87 23.125, 86.550 22, 86 22 C 85.450 22, 85 21.100, 85 20 C 85 18.889, 84.333 18, 83.500 18 C 82.667 18, 82 17.111, 82 16 C 82 14.900, 81.550 14, 81 14 C 80.450 14, 80 13.100, 80 12 C 80 10.900, 79.550 10, 79 10 C 78.450 10, 78 8.650, 78 7 C 78 5.350, 77.550 4, 77 4 C 76.450 4, 76 3.100, 76 2 C 76 0.045, 74.104 -0.489, 71.250 0.662" stroke="none" fill="#bc9464" fill-rule="evenodd"/></svg>