<svg xmlns="http://www.w3.org/2000/svg" width="128" height="124" viewBox="0 0 128 124" version="1.1"><path d="M 0 62.007 L 0 124.015 64.250 123.757 L 128.500 123.500 128.758 61.750 L 129.015 -0 64.508 -0 L 0 0 0 62.007 M 0.470 62.500 C 0.470 96.600, 0.596 110.695, 0.749 93.822 C 0.903 76.949, 0.903 49.049, 0.750 31.822 C 0.596 14.595, 0.470 28.400, 0.470 62.500 M 30.231 4.433 C 20.889 7.904, 13.695 13.992, 8.222 23.057 C 0.533 35.797, 0.545 86.635, 8.241 101.237 C 17.299 118.424, 28.919 123, 63.500 123 C 99.429 123, 110.960 117.971, 120.315 98.223 L 123.500 91.500 123.823 65.310 C 124.337 23.686, 118.105 10.704, 94.119 3.423 C 85.418 0.783, 38.042 1.531, 30.231 4.433" stroke="none" fill="#fffffe" fill-rule="evenodd"/><path d="M 61.701 5.632 C 61.316 6.018, 61 18.408, 61 33.167 L 61 60 32.930 60 L 4.861 60 5.180 62.250 L 5.500 64.500 33.234 64.766 L 60.968 65.032 61.234 92.766 L 61.500 120.500 63.750 120.820 L 66 121.139 66 93.070 L 66 65 94 65 L 122 65 122 62.500 L 122 60 94.016 60 L 66.032 60 65.766 32.763 C 65.496 5.149, 65.065 2.269, 61.701 5.632" stroke="none" fill="#1e1e1d" fill-rule="evenodd"/><path d="M 30.231 4.433 C 20.889 7.904, 13.695 13.992, 8.222 23.057 C 0.533 35.797, 0.545 86.635, 8.241 101.237 C 17.299 118.424, 28.919 123, 63.500 123 C 99.429 123, 110.960 117.971, 120.315 98.223 L 123.500 91.500 123.823 65.310 C 124.337 23.686, 118.105 10.704, 94.119 3.423 C 85.418 0.783, 38.042 1.531, 30.231 4.433 M 61.701 5.632 C 61.316 6.018, 61 18.408, 61 33.167 L 61 60 32.930 60 L 4.861 60 5.180 62.250 L 5.500 64.500 33.234 64.766 L 60.968 65.032 61.234 92.766 L 61.500 120.500 63.750 120.820 L 66 121.139 66 93.070 L 66 65 94 65 L 122 65 122 62.500 L 122 60 94.016 60 L 66.032 60 65.766 32.763 C 65.496 5.149, 65.065 2.269, 61.701 5.632" stroke="none" fill="#c8a780" fill-rule="evenodd"/></svg>